<svg width="275" height="48" viewBox="0 0 275 48" fill="none" xmlns="http://www.w3.org/2000/svg">
<path d="M29.2576 3.08338C31.0639 1.03815 33.2356 -0.0442022 35.8079 0.0331087C39.5048 0.152589 42.2318 2.05022 43.6655 5.70492C45.0431 9.23311 44.5652 12.6488 42.1264 15.4672C38.1202 20.0918 33.9595 24.5758 29.862 29.1161C29.8128 29.1723 29.7566 29.2145 29.6652 29.2918C29.5598 29.2004 29.4474 29.1231 29.356 29.0247C25.3991 24.9483 21.4633 20.8508 17.4923 16.7955C15.8617 15.1298 14.7091 13.2181 14.3366 10.7934C13.5986 5.97902 16.9722 1.01707 21.4773 0.328296C24.3519 -0.114485 26.8539 0.700794 28.9765 2.83739C29.0538 2.9147 29.1381 2.97795 29.2506 3.07635L29.2576 3.08338Z" fill="#ECF6EF"/>
<path d="M56.7521 30.8943C57.4479 32.0399 58.2211 33.045 58.7271 34.1906C60.456 38.1404 59.2261 42.9337 55.9369 45.4639C52.5563 48.0644 47.9036 47.7762 44.9166 44.7259C40.7277 40.4457 36.574 36.1233 32.4062 31.822C32.3219 31.7307 32.2376 31.6323 32.1111 31.4847C32.5679 30.9716 33.0036 30.4656 33.4535 29.9666C36.7286 26.333 40.0038 22.7064 43.279 19.0798C43.7569 18.5527 44.2278 18.0115 44.7408 17.5195C47.271 15.1018 50.2018 14.3709 53.4067 15.5235C56.6959 16.7042 58.6638 19.2485 59.205 22.9313C59.6478 25.9183 58.8114 28.5258 56.8857 30.7397C56.8154 30.824 56.7451 30.9013 56.7521 30.8943Z" fill="#ECF6EF"/>
<path d="M2.87347 31.9203C1.60838 30.6552 0.743902 29.1863 0.301121 27.4433C-0.703921 23.4512 0.863382 19.2413 4.15964 17.0906C7.47698 14.933 11.7502 15.3687 14.5966 18.2714C18.7925 22.5446 22.9392 26.867 27.1069 31.1753C27.1913 31.2667 27.2686 31.3651 27.3881 31.4986C26.5517 32.4263 25.7364 33.333 24.9141 34.2396C21.8357 37.6553 18.7433 41.057 15.686 44.4868C14.1468 46.2158 12.3897 47.4457 10.1337 47.8534C5.5934 48.6757 0.919608 45.0772 0.280036 40.1855C-0.120575 37.1071 0.659562 34.4364 2.65559 32.1733C2.71182 32.103 2.76804 32.0327 2.85941 31.9133L2.87347 31.9203Z" fill="#ECF6EF"/>
<path d="M118.709 40H111.549L106.229 29.84H99.3489V40H92.7889V12H108.429C111.362 12 113.682 12.7867 115.389 14.36C117.096 15.9333 117.949 18 117.949 20.56C117.949 22.4533 117.469 24.0933 116.509 25.48C115.576 26.84 114.269 27.8667 112.589 28.56L118.709 40ZM99.3489 17.68V24.2H107.869C108.882 24.2 109.682 23.8933 110.269 23.28C110.882 22.64 111.189 21.8533 111.189 20.92C111.189 19.96 110.896 19.1867 110.309 18.6C109.722 17.9867 108.909 17.68 107.869 17.68H99.3489ZM127.644 16.88C126.897 17.6267 126.017 18 125.004 18C123.991 18 123.097 17.6267 122.324 16.88C121.551 16.1067 121.164 15.2267 121.164 14.24C121.164 13.1733 121.537 12.28 122.284 11.56C123.057 10.8133 123.964 10.44 125.004 10.44C126.044 10.44 126.924 10.8133 127.644 11.56C128.391 12.28 128.764 13.1733 128.764 14.24C128.764 15.2267 128.391 16.1067 127.644 16.88ZM121.684 40V20H128.244V40H121.684ZM148.242 20V25.12H141.842V40H135.282V25.12H130.482V20H135.282V18.88C135.282 16.5067 136.042 14.7067 137.562 13.48C139.109 12.2267 141.069 11.6 143.442 11.6C144.855 11.6 146.375 11.8533 148.002 12.36L146.962 17.04C146.135 16.8533 145.389 16.76 144.722 16.76C143.895 16.76 143.202 16.96 142.642 17.36C142.109 17.7333 141.842 18.32 141.842 19.12V20H148.242ZM173.801 35.24H174.201V40H171.641C169.161 40 167.508 39.1333 166.681 37.4C165.108 39.4 162.335 40.4 158.361 40.4C155.588 40.4 153.401 39.8933 151.801 38.88C150.201 37.84 149.401 36.3333 149.401 34.36C149.401 32.4667 150.055 31.0133 151.361 30C152.695 28.96 154.468 28.36 156.681 28.2L165.601 27.56V27.2C165.601 25.44 164.188 24.56 161.361 24.56C158.748 24.56 157.281 25.3867 156.961 27.04H150.401C150.668 24.7733 151.775 22.9733 153.721 21.64C155.668 20.28 158.215 19.6 161.361 19.6C164.535 19.6 167.121 20.2667 169.121 21.6C171.148 22.9333 172.161 24.96 172.161 27.68V33.6C172.161 34.6933 172.708 35.24 173.801 35.24ZM165.601 32.12V31.84L158.281 32.36C156.735 32.5467 155.961 33.0933 155.961 34C155.961 35.04 156.988 35.56 159.041 35.56C160.161 35.56 161.188 35.4667 162.121 35.28C163.055 35.0667 163.868 34.6933 164.561 34.16C165.255 33.6267 165.601 32.9467 165.601 32.12ZM207.063 30.36C206.663 33.5867 205.076 36.0667 202.303 37.8C199.556 39.5333 196.089 40.4 191.903 40.4C186.863 40.4 182.916 39.08 180.063 36.44C177.236 33.7733 175.823 30.32 175.823 26.08C175.823 21.76 177.289 18.2667 180.223 15.6C183.183 12.9333 187.076 11.6 191.903 11.6C195.903 11.6 199.236 12.48 201.903 14.24C204.596 15.9733 206.169 18.48 206.623 21.76H199.183C198.703 20.5067 197.836 19.5333 196.583 18.84C195.356 18.1467 193.796 17.8 191.903 17.8C189.103 17.8 186.863 18.56 185.183 20.08C183.529 21.5733 182.703 23.5733 182.703 26.08C182.703 28.6133 183.556 30.6 185.263 32.04C186.996 33.48 189.209 34.2 191.903 34.2C193.956 34.2 195.649 33.8533 196.983 33.16C198.343 32.4667 199.223 31.5333 199.623 30.36H207.063ZM210.2 40V11.6H216.76V40H210.2ZM244.472 20V40H238.472L237.912 37.64H237.512C235.779 39.48 233.405 40.4 230.392 40.4C227.272 40.4 224.845 39.5733 223.112 37.92C221.379 36.2667 220.512 34 220.512 31.12V20H227.072V29.64C227.072 31.2933 227.539 32.56 228.472 33.44C229.432 34.32 230.752 34.76 232.432 34.76C234.085 34.76 235.405 34.32 236.392 33.44C237.405 32.56 237.912 31.2533 237.912 29.52V20H244.472ZM261.724 19.6C264.977 19.6 267.67 20.52 269.804 22.36C271.937 24.1733 273.004 26.7067 273.004 29.96C273.004 33.1867 271.95 35.7333 269.844 37.6C267.764 39.4667 265.057 40.4 261.724 40.4C258.737 40.4 256.417 39.6267 254.764 38.08H254.404L253.764 40H248.364V11.6H254.924V21.52C256.657 20.24 258.924 19.6 261.724 19.6ZM260.684 34.76C262.497 34.76 263.91 34.3333 264.924 33.48C265.964 32.6 266.484 31.4267 266.484 29.96C266.484 28.52 265.964 27.3733 264.924 26.52C263.91 25.6667 262.497 25.24 260.684 25.24C258.87 25.24 257.457 25.6667 256.444 26.52C255.43 27.3733 254.924 28.52 254.924 29.96C254.924 31.4533 255.43 32.6267 256.444 33.48C257.484 34.3333 258.897 34.76 260.684 34.76Z" fill="#ECF6EF"/>
</svg>
